<svg width="34" height="26" viewBox="0 0 34 26" fill="none" xmlns="http://www.w3.org/2000/svg">
<path d="M15.0961 18.041C15.0961 17.4579 15.0556 16.9154 14.9747 16.4133C14.8937 15.9112 14.7614 15.4253 14.5779 14.9557C14.3943 14.486 14.119 14.1162 13.7519 13.8462C13.3848 13.5763 12.9475 13.4413 12.44 13.4413C11.749 14.1324 10.9068 14.4779 9.91344 14.4779C8.92009 14.4779 8.0779 14.1324 7.38688 13.4413C6.87941 13.4413 6.44212 13.5763 6.07501 13.8462C5.7079 14.1162 5.43257 14.486 5.24902 14.9557C5.06546 15.4253 4.9332 15.9112 4.85222 16.4133C4.77124 16.9154 4.73075 17.4579 4.73075 18.041C4.73075 18.6348 4.90081 19.1396 5.24092 19.5553C5.58103 19.971 5.98863 20.1789 6.46371 20.1789H13.3632C13.8383 20.1789 14.2458 19.971 14.586 19.5553C14.9261 19.1396 15.0961 18.6348 15.0961 18.041ZM13.0231 10.85C13.0231 9.98622 12.7207 9.25201 12.1161 8.64736C11.5114 8.04271 10.7772 7.74039 9.91344 7.74039C9.04966 7.74039 8.31544 8.04271 7.7108 8.64736C7.10615 9.25201 6.80383 9.98622 6.80383 10.85C6.80383 11.7138 7.10615 12.448 7.7108 13.0526C8.31544 13.6573 9.04966 13.9596 9.91344 13.9596C10.7772 13.9596 11.5114 13.6573 12.1161 13.0526C12.7207 12.448 13.0231 11.7138 13.0231 10.85ZM29.6077 18.624V17.5875C29.6077 17.4363 29.5591 17.3122 29.4619 17.215C29.3647 17.1178 29.2406 17.0692 29.0894 17.0692H17.6875C17.5363 17.0692 17.4121 17.1178 17.315 17.215C17.2178 17.3122 17.1692 17.4363 17.1692 17.5875V18.624C17.1692 18.7752 17.2178 18.8994 17.315 18.9965C17.4121 19.0937 17.5363 19.1423 17.6875 19.1423H29.0894C29.2406 19.1423 29.3647 19.0937 29.4619 18.9965C29.5591 18.8994 29.6077 18.7752 29.6077 18.624ZM23.3884 14.4779V13.4413C23.3884 13.2902 23.3399 13.166 23.2427 13.0688C23.1455 12.9717 23.0213 12.9231 22.8702 12.9231H17.6875C17.5363 12.9231 17.4121 12.9717 17.315 13.0688C17.2178 13.166 17.1692 13.2902 17.1692 13.4413V14.4779C17.1692 14.6291 17.2178 14.7532 17.315 14.8504C17.4121 14.9476 17.5363 14.9962 17.6875 14.9962H22.8702C23.0213 14.9962 23.1455 14.9476 23.2427 14.8504C23.3399 14.7532 23.3884 14.6291 23.3884 14.4779ZM29.6077 14.4779V13.4413C29.6077 13.2902 29.5591 13.166 29.4619 13.0688C29.3647 12.9717 29.2406 12.9231 29.0894 12.9231H25.9798C25.8286 12.9231 25.7045 12.9717 25.6073 13.0688C25.5101 13.166 25.4615 13.2902 25.4615 13.4413V14.4779C25.4615 14.6291 25.5101 14.7532 25.6073 14.8504C25.7045 14.9476 25.8286 14.9962 25.9798 14.9962H29.0894C29.2406 14.9962 29.3647 14.9476 29.4619 14.8504C29.5591 14.7532 29.6077 14.6291 29.6077 14.4779ZM29.6077 10.3317V9.2952C29.6077 9.14403 29.5591 9.01987 29.4619 8.92269C29.3647 8.82551 29.2406 8.77693 29.0894 8.77693H17.6875C17.5363 8.77693 17.4121 8.82551 17.315 8.92269C17.2178 9.01987 17.1692 9.14403 17.1692 9.2952V10.3317C17.1692 10.4829 17.2178 10.6071 17.315 10.7042C17.4121 10.8014 17.5363 10.85 17.6875 10.85H29.0894C29.2406 10.85 29.3647 10.8014 29.4619 10.7042C29.5591 10.6071 29.6077 10.4829 29.6077 10.3317ZM2.65767 4.63077H31.6807V3.07597C31.6807 2.9248 31.6322 2.80063 31.535 2.70346C31.4378 2.60628 31.3136 2.5577 31.1625 2.5577H3.17594C3.02478 2.5577 2.90061 2.60628 2.80343 2.70346C2.70626 2.80063 2.65767 2.9248 2.65767 3.07597V4.63077ZM33.7538 3.07597V22.7702C33.7538 23.4828 33.5001 24.0929 32.9926 24.6003C32.4851 25.1078 31.8751 25.3615 31.1625 25.3615H3.17594C2.46332 25.3615 1.85327 25.1078 1.3458 24.6003C0.838331 24.0929 0.584595 23.4828 0.584595 22.7702V3.07597C0.584595 2.36335 0.838331 1.7533 1.3458 1.24583C1.85327 0.738355 2.46332 0.484619 3.17594 0.484619H31.1625C31.8751 0.484619 32.4851 0.738355 32.9926 1.24583C33.5001 1.7533 33.7538 2.36335 33.7538 3.07597Z" fill="white"/>
</svg>
