<svg width="34" height="27" viewBox="0 0 34 27" fill="none" xmlns="http://www.w3.org/2000/svg">
<path d="M29.8523 0H3.31692C1.47603 0 0.0165846 1.47603 0.0165846 3.31692L0 23.2185C0 25.0594 1.47603 26.5354 3.31692 26.5354H29.8523C31.6932 26.5354 33.1692 25.0594 33.1692 23.2185V3.31692C33.1692 1.47603 31.6932 0 29.8523 0ZM16.5846 9.95077H9.95077V11.6092H14.9262C15.8383 11.6092 16.5846 12.3555 16.5846 13.2677V18.2431C16.5846 19.1552 15.8383 19.9015 14.9262 19.9015H13.2677V21.56H9.95077V19.9015H6.63385V16.5846H13.2677V14.9262H8.29231C7.38015 14.9262 6.63385 14.1798 6.63385 13.2677V8.29231C6.63385 7.38015 7.38015 6.63385 8.29231 6.63385H9.95077V4.97538H13.2677V6.63385H16.5846V9.95077ZM23.2185 20.3162L19.9015 16.9992H26.5354L23.2185 20.3162ZM19.9015 9.95077L23.2185 6.63385L26.5354 9.95077H19.9015Z" fill="white"/>
</svg>
